<svg width="1400" height="56" viewBox="0 0 1400 56" fill="none" xmlns="http://www.w3.org/2000/svg">
<path d="M306.618 32V23.6H307.602V27.248H311.394V23.6H312.378V32H311.394V28.112H307.602V32H306.618ZM317.154 32.18C316.242 32.164 315.518 31.856 314.982 31.256C314.454 30.648 314.182 29.836 314.166 28.82C314.182 27.804 314.454 26.992 314.982 26.384C315.518 25.784 316.242 25.476 317.154 25.46C318.066 25.476 318.79 25.784 319.326 26.384C319.862 26.992 320.138 27.804 320.154 28.82C320.138 29.836 319.862 30.648 319.326 31.256C318.79 31.856 318.066 32.164 317.154 32.18ZM317.154 31.304C317.794 31.296 318.294 31.072 318.654 30.632C319.022 30.192 319.21 29.588 319.218 28.82C319.21 28.052 319.022 27.448 318.654 27.008C318.294 26.568 317.794 26.344 317.154 26.336C316.514 26.344 316.014 26.568 315.654 27.008C315.294 27.448 315.11 28.052 315.102 28.82C315.11 29.588 315.294 30.192 315.654 30.632C316.014 31.072 316.514 31.296 317.154 31.304ZM321.685 32V23.24H322.621V32H321.685ZM324.32 24.524V23.48H325.4V24.524H324.32ZM324.392 32V25.64H325.328V32H324.392ZM329.716 32.18C328.868 32.164 328.184 31.852 327.664 31.244C327.144 30.636 326.876 29.828 326.86 28.82C326.876 27.812 327.144 27.004 327.664 26.396C328.184 25.788 328.868 25.476 329.716 25.46C330.116 25.46 330.476 25.54 330.796 25.7C331.116 25.852 331.38 26.056 331.588 26.312H331.612V23.24H332.548V32H331.648V31.364H331.624C331.408 31.62 331.136 31.82 330.808 31.964C330.472 32.108 330.108 32.18 329.716 32.18ZM329.776 31.304C330.296 31.288 330.728 31.108 331.072 30.764C331.416 30.412 331.596 29.968 331.612 29.432V28.196C331.596 27.668 331.412 27.228 331.06 26.876C330.708 26.532 330.26 26.352 329.716 26.336C329.14 26.344 328.676 26.572 328.324 27.02C327.98 27.46 327.804 28.06 327.796 28.82C327.804 29.58 327.984 30.18 328.336 30.62C328.688 31.068 329.168 31.296 329.776 31.304ZM336.179 32.18C335.531 32.172 335.023 32.008 334.655 31.688C334.287 31.376 334.099 30.94 334.091 30.38C334.083 29.844 334.255 29.42 334.607 29.108C334.959 28.796 335.531 28.548 336.323 28.364C336.923 28.22 337.347 28.068 337.595 27.908C337.835 27.74 337.951 27.532 337.943 27.284C337.935 26.988 337.815 26.752 337.583 26.576C337.351 26.4 337.035 26.312 336.635 26.312C336.211 26.312 335.863 26.432 335.591 26.672C335.311 26.912 335.127 27.248 335.039 27.68L334.091 27.5C334.211 26.868 334.495 26.372 334.943 26.012C335.399 25.652 335.963 25.468 336.635 25.46C337.355 25.468 337.915 25.652 338.315 26.012C338.715 26.38 338.919 26.884 338.927 27.524V32H338.051V31.328H338.027C337.843 31.592 337.591 31.8 337.271 31.952C336.951 32.104 336.587 32.18 336.179 32.18ZM336.251 31.304C336.771 31.296 337.187 31.16 337.499 30.896C337.819 30.624 337.983 30.276 337.991 29.852V28.424H337.967C337.903 28.576 337.763 28.712 337.547 28.832C337.323 28.952 336.999 29.064 336.575 29.168C336.023 29.304 335.627 29.464 335.387 29.648C335.139 29.824 335.019 30.048 335.027 30.32C335.027 30.64 335.131 30.884 335.339 31.052C335.547 31.22 335.851 31.304 336.251 31.304ZM341.081 34.7L342.425 31.46L339.977 25.64H340.973L342.905 30.38H342.929L344.873 25.64H345.869L342.053 34.7H341.081ZM353.7 32.18C352.612 32.164 351.752 31.768 351.12 30.992C350.496 30.208 350.176 29.144 350.16 27.8C350.176 26.448 350.496 25.384 351.12 24.608C351.752 23.832 352.612 23.436 353.7 23.42C354.556 23.428 355.268 23.68 355.836 24.176C356.404 24.672 356.756 25.344 356.892 26.192L355.908 26.372C355.788 25.708 355.54 25.208 355.164 24.872C354.788 24.528 354.3 24.356 353.7 24.356C352.908 24.364 352.288 24.672 351.84 25.28C351.392 25.888 351.164 26.728 351.156 27.8C351.164 28.872 351.392 29.712 351.84 30.32C352.288 30.928 352.908 31.236 353.7 31.244C354.428 31.236 354.988 31.016 355.38 30.584C355.772 30.152 355.96 29.552 355.944 28.784H353.808V27.848H356.916V28.7C356.908 29.772 356.62 30.616 356.052 31.232C355.476 31.848 354.692 32.164 353.7 32.18ZM358.38 24.524V23.48H359.46V24.524H358.38ZM358.452 32V25.64H359.388V32H358.452ZM361.7 32V26.48H360.608V25.64H361.7V24.944C361.7 24.528 361.824 24.2 362.072 23.96C362.32 23.728 362.672 23.608 363.128 23.6H364.064V24.476H363.236C363.036 24.476 362.884 24.524 362.78 24.62C362.684 24.724 362.636 24.876 362.636 25.076V25.64H364.244V26.48H362.636V32H361.7ZM368.318 26.48H366.758V30.548C366.758 30.748 366.81 30.896 366.914 30.992C367.018 31.08 367.198 31.124 367.454 31.124H367.982V32H367.382C366.814 32.008 366.41 31.9 366.17 31.676C365.93 31.452 365.814 31.072 365.822 30.536V26.48H364.862V25.64H365.822V24.2H366.758V25.64H368.318V26.48ZM369.597 24.524V23.48H370.677V24.524H369.597ZM369.669 32V25.64H370.605V32H369.669ZM372.377 32V25.64H373.289V26.228H373.313C373.513 25.996 373.773 25.812 374.093 25.676C374.413 25.532 374.749 25.46 375.101 25.46C375.845 25.468 376.433 25.688 376.865 26.12C377.289 26.552 377.505 27.14 377.513 27.884V32H376.577V28.004C376.569 27.484 376.429 27.076 376.157 26.78C375.877 26.492 375.489 26.344 374.993 26.336C374.481 26.344 374.077 26.5 373.781 26.804C373.477 27.1 373.321 27.5 373.313 28.004V32H372.377ZM382.101 34.88C381.485 34.872 380.953 34.72 380.505 34.424C380.057 34.12 379.729 33.692 379.521 33.14L380.373 32.756C380.557 33.204 380.785 33.528 381.057 33.728C381.329 33.92 381.677 34.016 382.101 34.016C382.621 34.008 383.025 33.84 383.313 33.512C383.601 33.176 383.745 32.716 383.745 32.132V31.328H383.721C383.529 31.608 383.273 31.82 382.953 31.964C382.633 32.108 382.261 32.18 381.837 32.18C380.981 32.164 380.297 31.848 379.785 31.232C379.273 30.624 379.009 29.82 378.993 28.82C379.009 27.812 379.273 27.004 379.785 26.396C380.305 25.788 380.993 25.476 381.849 25.46C382.225 25.46 382.577 25.536 382.905 25.688C383.225 25.832 383.497 26.04 383.721 26.312H383.745V25.64H384.681V32.192C384.673 33.008 384.437 33.656 383.973 34.136C383.517 34.624 382.893 34.872 382.101 34.88ZM381.909 31.304C382.429 31.288 382.861 31.104 383.205 30.752C383.549 30.4 383.729 29.96 383.745 29.432V28.196C383.729 27.668 383.545 27.228 383.193 26.876C382.841 26.532 382.393 26.352 381.849 26.336C381.265 26.344 380.801 26.572 380.457 27.02C380.113 27.468 379.937 28.068 379.929 28.82C379.937 29.58 380.117 30.18 380.469 30.62C380.821 31.068 381.301 31.296 381.909 31.304Z" fill="#262626"/>
<path d="M410.561 32V23.6H411.725L415.541 30.452H415.565V23.6H416.561V32H415.385L411.569 25.148H411.545V32H410.561ZM421.283 32.18C420.387 32.164 419.675 31.856 419.147 31.256C418.627 30.648 418.359 29.836 418.343 28.82C418.359 27.804 418.631 26.992 419.159 26.384C419.687 25.784 420.395 25.476 421.283 25.46C422.155 25.476 422.843 25.768 423.347 26.336C423.859 26.904 424.119 27.664 424.127 28.616V29.096H419.291C419.307 29.72 419.491 30.244 419.843 30.668C420.195 31.092 420.667 31.312 421.259 31.328C421.699 31.336 422.067 31.24 422.363 31.04C422.659 30.848 422.939 30.52 423.203 30.056L423.983 30.524C423.703 31.068 423.339 31.48 422.891 31.76C422.435 32.04 421.899 32.18 421.283 32.18ZM419.315 28.34H423.179C423.155 27.756 422.975 27.276 422.639 26.9C422.303 26.524 421.851 26.328 421.283 26.312C420.723 26.328 420.259 26.532 419.891 26.924C419.531 27.316 419.339 27.788 419.315 28.34ZM426.694 32L425.17 25.64H426.094L427.246 30.584H427.27L428.974 25.64H429.826L431.53 30.584H431.554L432.706 25.64H433.63L432.106 32H431.218L429.418 26.804H429.394L427.582 32H426.694ZM443.599 32L443.011 30.308H439.231L438.643 32H437.623L440.647 23.6H441.607L444.619 32H443.599ZM439.543 29.444H442.711L441.139 24.956H441.115L439.543 29.444ZM445.669 32V25.64H446.557V26.168H446.581C446.701 25.968 446.873 25.812 447.097 25.7C447.329 25.588 447.597 25.532 447.901 25.532C448.013 25.532 448.121 25.54 448.225 25.556C448.329 25.572 448.433 25.596 448.537 25.628L448.333 26.6C448.221 26.56 448.117 26.532 448.021 26.516C447.917 26.5 447.813 26.492 447.709 26.492C447.341 26.484 447.065 26.616 446.881 26.888C446.697 27.16 446.605 27.592 446.605 28.184V32H445.669ZM449.771 32V25.64H450.659V26.168H450.683C450.803 25.968 450.975 25.812 451.199 25.7C451.431 25.588 451.699 25.532 452.003 25.532C452.115 25.532 452.223 25.54 452.327 25.556C452.431 25.572 452.535 25.596 452.639 25.628L452.435 26.6C452.323 26.56 452.219 26.532 452.123 26.516C452.019 26.5 451.915 26.492 451.811 26.492C451.443 26.484 451.167 26.616 450.983 26.888C450.799 27.16 450.707 27.592 450.707 28.184V32H449.771ZM453.801 24.524V23.48H454.881V24.524H453.801ZM453.873 32V25.64H454.809V32H453.873ZM458.597 32L455.909 25.64H456.917L458.993 30.716H459.017L461.093 25.64H462.101L459.413 32H458.597ZM465.063 32.18C464.415 32.172 463.907 32.008 463.539 31.688C463.171 31.376 462.983 30.94 462.975 30.38C462.967 29.844 463.139 29.42 463.491 29.108C463.843 28.796 464.415 28.548 465.207 28.364C465.807 28.22 466.231 28.068 466.479 27.908C466.719 27.74 466.835 27.532 466.827 27.284C466.819 26.988 466.699 26.752 466.467 26.576C466.235 26.4 465.919 26.312 465.519 26.312C465.095 26.312 464.747 26.432 464.475 26.672C464.195 26.912 464.011 27.248 463.923 27.68L462.975 27.5C463.095 26.868 463.379 26.372 463.827 26.012C464.283 25.652 464.847 25.468 465.519 25.46C466.239 25.468 466.799 25.652 467.199 26.012C467.599 26.38 467.803 26.884 467.811 27.524V32H466.935V31.328H466.911C466.727 31.592 466.475 31.8 466.155 31.952C465.835 32.104 465.471 32.18 465.063 32.18ZM465.135 31.304C465.655 31.296 466.071 31.16 466.383 30.896C466.703 30.624 466.867 30.276 466.875 29.852V28.424H466.851C466.787 28.576 466.647 28.712 466.431 28.832C466.207 28.952 465.883 29.064 465.459 29.168C464.907 29.304 464.511 29.464 464.271 29.648C464.023 29.824 463.903 30.048 463.911 30.32C463.911 30.64 464.015 30.884 464.223 31.052C464.431 31.22 464.735 31.304 465.135 31.304ZM469.532 32V23.24H470.468V32H469.532ZM474.7 32.18C473.876 32.172 473.22 31.968 472.732 31.568C472.244 31.16 471.96 30.58 471.88 29.828L472.792 29.66C472.88 30.236 473.076 30.656 473.38 30.92C473.684 31.184 474.124 31.312 474.7 31.304C475.14 31.304 475.484 31.22 475.732 31.052C475.972 30.892 476.096 30.672 476.104 30.392C476.112 30.104 475.988 29.864 475.732 29.672C475.476 29.488 475.016 29.3 474.352 29.108C473.552 28.884 472.988 28.632 472.66 28.352C472.332 28.072 472.172 27.716 472.18 27.284C472.188 26.74 472.396 26.304 472.804 25.976C473.212 25.64 473.744 25.468 474.4 25.46C475.048 25.468 475.588 25.64 476.02 25.976C476.452 26.304 476.732 26.764 476.86 27.356L475.948 27.56C475.836 27.16 475.652 26.856 475.396 26.648C475.132 26.44 474.8 26.336 474.4 26.336C474.008 26.336 473.7 26.42 473.476 26.588C473.244 26.748 473.124 26.968 473.116 27.248C473.108 27.464 473.216 27.648 473.44 27.8C473.672 27.952 474.08 28.112 474.664 28.28C475.536 28.528 476.156 28.812 476.524 29.132C476.884 29.444 477.06 29.852 477.052 30.356C477.044 30.916 476.828 31.356 476.404 31.676C475.988 32.004 475.42 32.172 474.7 32.18Z" fill="#262626"/>
<path d="M503.03 32V23.6H506.258C507.002 23.608 507.594 23.808 508.034 24.2C508.474 24.584 508.698 25.108 508.706 25.772C508.706 26.18 508.618 26.536 508.442 26.84C508.274 27.136 508.034 27.356 507.722 27.5V27.524C508.114 27.668 508.426 27.912 508.658 28.256C508.89 28.608 509.01 29.028 509.018 29.516C509.018 30.332 508.766 30.948 508.262 31.364C507.766 31.788 507.034 32 506.066 32H503.03ZM504.014 27.164H506.078C507.166 27.164 507.71 26.716 507.71 25.82C507.71 25.396 507.574 25.076 507.302 24.86C507.03 24.644 506.622 24.536 506.078 24.536H504.014V27.164ZM504.014 31.064H505.934C506.662 31.064 507.194 30.94 507.53 30.692C507.866 30.444 508.03 30.052 508.022 29.516C508.03 28.996 507.87 28.62 507.542 28.388C507.214 28.156 506.686 28.04 505.958 28.04H504.014V31.064ZM513.26 32.18C512.364 32.164 511.652 31.856 511.124 31.256C510.604 30.648 510.336 29.836 510.32 28.82C510.336 27.804 510.608 26.992 511.136 26.384C511.664 25.784 512.372 25.476 513.26 25.46C514.132 25.476 514.82 25.768 515.324 26.336C515.836 26.904 516.096 27.664 516.104 28.616V29.096H511.268C511.284 29.72 511.468 30.244 511.82 30.668C512.172 31.092 512.644 31.312 513.236 31.328C513.676 31.336 514.044 31.24 514.34 31.04C514.636 30.848 514.916 30.52 515.18 30.056L515.96 30.524C515.68 31.068 515.316 31.48 514.868 31.76C514.412 32.04 513.876 32.18 513.26 32.18ZM511.292 28.34H515.156C515.132 27.756 514.952 27.276 514.616 26.9C514.28 26.524 513.828 26.328 513.26 26.312C512.7 26.328 512.236 26.532 511.868 26.924C511.508 27.316 511.316 27.788 511.292 28.34ZM520.099 32.18C519.275 32.172 518.619 31.968 518.131 31.568C517.643 31.16 517.359 30.58 517.279 29.828L518.191 29.66C518.279 30.236 518.475 30.656 518.779 30.92C519.083 31.184 519.523 31.312 520.099 31.304C520.539 31.304 520.883 31.22 521.131 31.052C521.371 30.892 521.495 30.672 521.503 30.392C521.511 30.104 521.387 29.864 521.131 29.672C520.875 29.488 520.415 29.3 519.751 29.108C518.951 28.884 518.387 28.632 518.059 28.352C517.731 28.072 517.571 27.716 517.579 27.284C517.587 26.74 517.795 26.304 518.203 25.976C518.611 25.64 519.143 25.468 519.799 25.46C520.447 25.468 520.987 25.64 521.419 25.976C521.851 26.304 522.131 26.764 522.259 27.356L521.347 27.56C521.235 27.16 521.051 26.856 520.795 26.648C520.531 26.44 520.199 26.336 519.799 26.336C519.407 26.336 519.099 26.42 518.875 26.588C518.643 26.748 518.523 26.968 518.515 27.248C518.507 27.464 518.615 27.648 518.839 27.8C519.071 27.952 519.479 28.112 520.063 28.28C520.935 28.528 521.555 28.812 521.923 29.132C522.283 29.444 522.459 29.852 522.451 30.356C522.443 30.916 522.227 31.356 521.803 31.676C521.387 32.004 520.819 32.172 520.099 32.18ZM526.766 26.48H525.206V30.548C525.206 30.748 525.258 30.896 525.362 30.992C525.466 31.08 525.646 31.124 525.902 31.124H526.43V32H525.83C525.262 32.008 524.858 31.9 524.618 31.676C524.378 31.452 524.262 31.072 524.27 30.536V26.48H523.31V25.64H524.27V24.2H525.206V25.64H526.766V26.48ZM527.937 28.892V27.992H531.069V28.892H527.937ZM535.76 32.18C534.728 32.18 533.92 31.924 533.336 31.412C532.744 30.908 532.4 30.176 532.304 29.216L533.288 29.048C533.368 29.792 533.612 30.344 534.02 30.704C534.428 31.064 535.012 31.244 535.772 31.244C536.364 31.236 536.832 31.112 537.176 30.872C537.52 30.632 537.696 30.304 537.704 29.888C537.72 29.472 537.552 29.124 537.2 28.844C536.856 28.556 536.252 28.28 535.388 28.016C534.396 27.696 533.7 27.36 533.3 27.008C532.892 26.648 532.696 26.192 532.712 25.64C532.728 24.976 532.98 24.444 533.468 24.044C533.948 23.636 534.592 23.428 535.4 23.42C536.2 23.428 536.872 23.648 537.416 24.08C537.952 24.512 538.296 25.108 538.448 25.868L537.476 26.072C537.34 25.512 537.096 25.088 536.744 24.8C536.392 24.504 535.94 24.356 535.388 24.356C534.868 24.364 534.46 24.48 534.164 24.704C533.86 24.936 533.704 25.248 533.696 25.64C533.688 25.952 533.832 26.22 534.128 26.444C534.432 26.66 534.96 26.884 535.712 27.116C536.792 27.46 537.56 27.844 538.016 28.268C538.48 28.692 538.704 29.228 538.688 29.876C538.672 30.572 538.4 31.128 537.872 31.544C537.344 31.96 536.64 32.172 535.76 32.18ZM542.795 32.18C541.899 32.164 541.187 31.856 540.659 31.256C540.139 30.648 539.871 29.836 539.855 28.82C539.871 27.804 540.143 26.992 540.671 26.384C541.199 25.784 541.907 25.476 542.795 25.46C543.667 25.476 544.355 25.768 544.859 26.336C545.371 26.904 545.631 27.664 545.639 28.616V29.096H540.803C540.819 29.72 541.003 30.244 541.355 30.668C541.707 31.092 542.179 31.312 542.771 31.328C543.211 31.336 543.579 31.24 543.875 31.04C544.171 30.848 544.451 30.52 544.715 30.056L545.495 30.524C545.215 31.068 544.851 31.48 544.403 31.76C543.947 32.04 543.411 32.18 542.795 32.18ZM540.827 28.34H544.691C544.667 27.756 544.487 27.276 544.151 26.9C543.815 26.524 543.363 26.328 542.795 26.312C542.235 26.328 541.771 26.532 541.403 26.924C541.043 27.316 540.851 27.788 540.827 28.34ZM547.174 32V23.24H548.11V32H547.174ZM549.882 32V23.24H550.818V32H549.882ZM555.29 32.18C554.394 32.164 553.682 31.856 553.154 31.256C552.634 30.648 552.366 29.836 552.35 28.82C552.366 27.804 552.638 26.992 553.166 26.384C553.694 25.784 554.402 25.476 555.29 25.46C556.162 25.476 556.85 25.768 557.354 26.336C557.866 26.904 558.126 27.664 558.134 28.616V29.096H553.298C553.314 29.72 553.498 30.244 553.85 30.668C554.202 31.092 554.674 31.312 555.266 31.328C555.706 31.336 556.074 31.24 556.37 31.04C556.666 30.848 556.946 30.52 557.21 30.056L557.99 30.524C557.71 31.068 557.346 31.48 556.898 31.76C556.442 32.04 555.906 32.18 555.29 32.18ZM553.322 28.34H557.186C557.162 27.756 556.982 27.276 556.646 26.9C556.31 26.524 555.858 26.328 555.29 26.312C554.73 26.328 554.266 26.532 553.898 26.924C553.538 27.316 553.346 27.788 553.322 28.34ZM559.669 32V25.64H560.557V26.168H560.581C560.701 25.968 560.873 25.812 561.097 25.7C561.329 25.588 561.597 25.532 561.901 25.532C562.013 25.532 562.121 25.54 562.225 25.556C562.329 25.572 562.433 25.596 562.537 25.628L562.333 26.6C562.221 26.56 562.117 26.532 562.021 26.516C561.917 26.5 561.813 26.492 561.709 26.492C561.341 26.484 561.065 26.616 560.881 26.888C560.697 27.16 560.605 27.592 560.605 28.184V32H559.669ZM566.231 32.18C565.407 32.172 564.751 31.968 564.263 31.568C563.775 31.16 563.491 30.58 563.411 29.828L564.323 29.66C564.411 30.236 564.607 30.656 564.911 30.92C565.215 31.184 565.655 31.312 566.231 31.304C566.671 31.304 567.015 31.22 567.263 31.052C567.503 30.892 567.627 30.672 567.635 30.392C567.643 30.104 567.519 29.864 567.263 29.672C567.007 29.488 566.547 29.3 565.883 29.108C565.083 28.884 564.519 28.632 564.191 28.352C563.863 28.072 563.703 27.716 563.711 27.284C563.719 26.74 563.927 26.304 564.335 25.976C564.743 25.64 565.275 25.468 565.931 25.46C566.579 25.468 567.119 25.64 567.551 25.976C567.983 26.304 568.263 26.764 568.391 27.356L567.479 27.56C567.367 27.16 567.183 26.856 566.927 26.648C566.663 26.44 566.331 26.336 565.931 26.336C565.539 26.336 565.231 26.42 565.007 26.588C564.775 26.748 564.655 26.968 564.647 27.248C564.639 27.464 564.747 27.648 564.971 27.8C565.203 27.952 565.611 28.112 566.195 28.28C567.067 28.528 567.687 28.812 568.055 29.132C568.415 29.444 568.591 29.852 568.583 30.356C568.575 30.916 568.359 31.356 567.935 31.676C567.519 32.004 566.951 32.172 566.231 32.18Z" fill="#262626"/>
<path d="M597.796 32.18C596.708 32.164 595.848 31.768 595.216 30.992C594.592 30.208 594.272 29.144 594.256 27.8C594.272 26.464 594.596 25.404 595.228 24.62C595.86 23.836 596.716 23.436 597.796 23.42C598.668 23.428 599.392 23.692 599.968 24.212C600.536 24.732 600.884 25.444 601.012 26.348L600.028 26.516C599.908 25.812 599.66 25.276 599.284 24.908C598.908 24.54 598.412 24.356 597.796 24.356C597.004 24.364 596.384 24.672 595.936 25.28C595.488 25.888 595.26 26.728 595.252 27.8C595.26 28.88 595.488 29.724 595.936 30.332C596.376 30.932 596.996 31.236 597.796 31.244C598.444 31.244 598.956 31.044 599.332 30.644C599.708 30.244 599.936 29.66 600.016 28.892L601.036 29.024C600.948 30.008 600.62 30.78 600.052 31.34C599.484 31.892 598.732 32.172 597.796 32.18ZM602.442 32V23.24H603.378V32H602.442ZM607.898 32.18C606.986 32.164 606.262 31.856 605.726 31.256C605.198 30.648 604.926 29.836 604.91 28.82C604.926 27.804 605.198 26.992 605.726 26.384C606.262 25.784 606.986 25.476 607.898 25.46C608.81 25.476 609.534 25.784 610.07 26.384C610.606 26.992 610.882 27.804 610.898 28.82C610.882 29.836 610.606 30.648 610.07 31.256C609.534 31.856 608.81 32.164 607.898 32.18ZM607.898 31.304C608.538 31.296 609.038 31.072 609.398 30.632C609.766 30.192 609.954 29.588 609.962 28.82C609.954 28.052 609.766 27.448 609.398 27.008C609.038 26.568 608.538 26.344 607.898 26.336C607.258 26.344 606.758 26.568 606.398 27.008C606.038 27.448 605.854 28.052 605.846 28.82C605.854 29.588 606.038 30.192 606.398 30.632C606.758 31.072 607.258 31.296 607.898 31.304ZM615.332 26.48H613.772V30.548C613.772 30.748 613.824 30.896 613.928 30.992C614.032 31.08 614.212 31.124 614.468 31.124H614.996V32H614.396C613.828 32.008 613.424 31.9 613.184 31.676C612.944 31.452 612.828 31.072 612.836 30.536V26.48H611.876V25.64H612.836V24.2H613.772V25.64H615.332V26.48ZM616.683 32V23.24H617.619V26.228H617.643C617.835 25.996 618.087 25.812 618.399 25.676C618.719 25.532 619.055 25.46 619.407 25.46C620.151 25.468 620.735 25.688 621.159 26.12C621.591 26.544 621.811 27.128 621.819 27.872V32H620.883V28.004C620.875 27.484 620.735 27.076 620.463 26.78C620.183 26.492 619.795 26.344 619.299 26.336C618.787 26.344 618.383 26.5 618.087 26.804C617.783 27.1 617.627 27.5 617.619 28.004V32H616.683ZM623.467 24.524V23.48H624.547V24.524H623.467ZM623.539 32V25.64H624.475V32H623.539ZM626.247 32V25.64H627.159V26.228H627.183C627.383 25.996 627.643 25.812 627.963 25.676C628.283 25.532 628.619 25.46 628.971 25.46C629.715 25.468 630.303 25.688 630.735 26.12C631.159 26.552 631.375 27.14 631.383 27.884V32H630.447V28.004C630.439 27.484 630.299 27.076 630.027 26.78C629.747 26.492 629.359 26.344 628.863 26.336C628.351 26.344 627.947 26.5 627.651 26.804C627.347 27.1 627.191 27.5 627.183 28.004V32H626.247ZM635.971 34.88C635.355 34.872 634.823 34.72 634.375 34.424C633.927 34.12 633.599 33.692 633.391 33.14L634.243 32.756C634.427 33.204 634.655 33.528 634.927 33.728C635.199 33.92 635.547 34.016 635.971 34.016C636.491 34.008 636.895 33.84 637.183 33.512C637.471 33.176 637.615 32.716 637.615 32.132V31.328H637.591C637.399 31.608 637.143 31.82 636.823 31.964C636.503 32.108 636.131 32.18 635.707 32.18C634.851 32.164 634.167 31.848 633.655 31.232C633.143 30.624 632.879 29.82 632.863 28.82C632.879 27.812 633.143 27.004 633.655 26.396C634.175 25.788 634.863 25.476 635.719 25.46C636.095 25.46 636.447 25.536 636.775 25.688C637.095 25.832 637.367 26.04 637.591 26.312H637.615V25.64H638.551V32.192C638.543 33.008 638.307 33.656 637.843 34.136C637.387 34.624 636.763 34.872 635.971 34.88ZM635.779 31.304C636.299 31.288 636.731 31.104 637.075 30.752C637.419 30.4 637.599 29.96 637.615 29.432V28.196C637.599 27.668 637.415 27.228 637.063 26.876C636.711 26.532 636.263 26.352 635.719 26.336C635.135 26.344 634.671 26.572 634.327 27.02C633.983 27.468 633.807 28.068 633.799 28.82C633.807 29.58 633.987 30.18 634.339 30.62C634.691 31.068 635.171 31.296 635.779 31.304Z" fill="#262626"/>
<path d="M666.704 32V24.536H664.088V23.6H670.316V24.536H667.7V32H666.704ZM674.475 32.18C673.563 32.164 672.839 31.856 672.303 31.256C671.775 30.648 671.503 29.836 671.487 28.82C671.503 27.804 671.775 26.992 672.303 26.384C672.839 25.784 673.563 25.476 674.475 25.46C675.387 25.476 676.111 25.784 676.647 26.384C677.183 26.992 677.459 27.804 677.475 28.82C677.459 29.836 677.183 30.648 676.647 31.256C676.111 31.856 675.387 32.164 674.475 32.18ZM674.475 31.304C675.115 31.296 675.615 31.072 675.975 30.632C676.343 30.192 676.531 29.588 676.539 28.82C676.531 28.052 676.343 27.448 675.975 27.008C675.615 26.568 675.115 26.344 674.475 26.336C673.835 26.344 673.335 26.568 672.975 27.008C672.615 27.448 672.431 28.052 672.423 28.82C672.431 29.588 672.615 30.192 672.975 30.632C673.335 31.072 673.835 31.296 674.475 31.304ZM679.005 34.7V25.64H679.941V26.312H679.965C680.173 26.056 680.437 25.852 680.757 25.7C681.077 25.54 681.433 25.46 681.825 25.46C682.681 25.476 683.369 25.788 683.889 26.396C684.409 27.004 684.677 27.812 684.693 28.82C684.677 29.828 684.409 30.636 683.889 31.244C683.369 31.852 682.689 32.164 681.849 32.18C681.449 32.172 681.085 32.096 680.757 31.952C680.429 31.8 680.165 31.604 679.965 31.364H679.941V34.7H679.005ZM681.777 31.304C682.385 31.296 682.865 31.068 683.217 30.62C683.569 30.18 683.749 29.58 683.757 28.82C683.749 28.06 683.573 27.46 683.229 27.02C682.877 26.572 682.409 26.344 681.825 26.336C681.281 26.352 680.837 26.532 680.493 26.876C680.141 27.228 679.957 27.668 679.941 28.196V29.432C679.957 29.968 680.137 30.412 680.481 30.764C680.825 31.108 681.257 31.288 681.777 31.304ZM688.696 32.18C687.872 32.172 687.216 31.968 686.728 31.568C686.24 31.16 685.956 30.58 685.876 29.828L686.788 29.66C686.876 30.236 687.072 30.656 687.376 30.92C687.68 31.184 688.12 31.312 688.696 31.304C689.136 31.304 689.48 31.22 689.728 31.052C689.968 30.892 690.092 30.672 690.1 30.392C690.108 30.104 689.984 29.864 689.728 29.672C689.472 29.488 689.012 29.3 688.348 29.108C687.548 28.884 686.984 28.632 686.656 28.352C686.328 28.072 686.168 27.716 686.176 27.284C686.184 26.74 686.392 26.304 686.8 25.976C687.208 25.64 687.74 25.468 688.396 25.46C689.044 25.468 689.584 25.64 690.016 25.976C690.448 26.304 690.728 26.764 690.856 27.356L689.944 27.56C689.832 27.16 689.648 26.856 689.392 26.648C689.128 26.44 688.796 26.336 688.396 26.336C688.004 26.336 687.696 26.42 687.472 26.588C687.24 26.748 687.12 26.968 687.112 27.248C687.104 27.464 687.212 27.648 687.436 27.8C687.668 27.952 688.076 28.112 688.66 28.28C689.532 28.528 690.152 28.812 690.52 29.132C690.88 29.444 691.056 29.852 691.048 30.356C691.04 30.916 690.824 31.356 690.4 31.676C689.984 32.004 689.416 32.172 688.696 32.18ZM702.866 30.824L702.302 31.484L701.51 30.776C701.278 31.232 700.926 31.58 700.454 31.82C699.982 32.06 699.406 32.18 698.726 32.18C697.822 32.172 697.114 31.952 696.602 31.52C696.098 31.088 695.842 30.488 695.834 29.72C695.834 29.248 695.978 28.796 696.266 28.364C696.554 27.932 696.974 27.556 697.526 27.236C697.174 26.908 696.922 26.596 696.77 26.3C696.618 26.004 696.542 25.692 696.542 25.364C696.55 24.796 696.754 24.332 697.154 23.972C697.554 23.612 698.078 23.428 698.726 23.42C699.358 23.428 699.874 23.596 700.274 23.924C700.674 24.26 700.922 24.724 701.018 25.316L700.094 25.472C700.014 25.08 699.862 24.788 699.638 24.596C699.422 24.396 699.122 24.296 698.738 24.296C698.346 24.304 698.042 24.404 697.826 24.596C697.602 24.796 697.486 25.064 697.478 25.4C697.47 25.624 697.518 25.832 697.622 26.024C697.718 26.216 697.906 26.432 698.186 26.672L700.862 29.048V27.296H701.774V29.852L702.866 30.824ZM698.726 31.304C699.254 31.304 699.694 31.204 700.046 31.004C700.406 30.804 700.65 30.512 700.778 30.128L698.162 27.812C697.666 28.092 697.31 28.388 697.094 28.7C696.87 29.012 696.762 29.352 696.77 29.72C696.778 30.208 696.954 30.592 697.298 30.872C697.642 31.152 698.118 31.296 698.726 31.304ZM710.675 32.18C709.643 32.18 708.835 31.924 708.251 31.412C707.659 30.908 707.315 30.176 707.219 29.216L708.203 29.048C708.283 29.792 708.527 30.344 708.935 30.704C709.343 31.064 709.927 31.244 710.687 31.244C711.279 31.236 711.747 31.112 712.091 30.872C712.435 30.632 712.611 30.304 712.619 29.888C712.635 29.472 712.467 29.124 712.115 28.844C711.771 28.556 711.167 28.28 710.303 28.016C709.311 27.696 708.615 27.36 708.215 27.008C707.807 26.648 707.611 26.192 707.627 25.64C707.643 24.976 707.895 24.444 708.383 24.044C708.863 23.636 709.507 23.428 710.315 23.42C711.115 23.428 711.787 23.648 712.331 24.08C712.867 24.512 713.211 25.108 713.363 25.868L712.391 26.072C712.255 25.512 712.011 25.088 711.659 24.8C711.307 24.504 710.855 24.356 710.303 24.356C709.783 24.364 709.375 24.48 709.079 24.704C708.775 24.936 708.619 25.248 708.611 25.64C708.603 25.952 708.747 26.22 709.043 26.444C709.347 26.66 709.875 26.884 710.627 27.116C711.707 27.46 712.475 27.844 712.931 28.268C713.395 28.692 713.619 29.228 713.603 29.876C713.587 30.572 713.315 31.128 712.787 31.544C712.259 31.96 711.555 32.172 710.675 32.18ZM716.042 32L714.518 25.64H715.442L716.594 30.584H716.618L718.322 25.64H719.174L720.878 30.584H720.902L722.054 25.64H722.978L721.454 32H720.566L718.766 26.804H718.742L716.93 32H716.042ZM726.968 32.18C726.072 32.164 725.36 31.856 724.832 31.256C724.312 30.648 724.044 29.836 724.028 28.82C724.044 27.804 724.316 26.992 724.844 26.384C725.372 25.784 726.08 25.476 726.968 25.46C727.84 25.476 728.528 25.768 729.032 26.336C729.544 26.904 729.804 27.664 729.812 28.616V29.096H724.976C724.992 29.72 725.176 30.244 725.528 30.668C725.88 31.092 726.352 31.312 726.944 31.328C727.384 31.336 727.752 31.24 728.048 31.04C728.344 30.848 728.624 30.52 728.888 30.056L729.668 30.524C729.388 31.068 729.024 31.48 728.576 31.76C728.12 32.04 727.584 32.18 726.968 32.18ZM725 28.34H728.864C728.84 27.756 728.66 27.276 728.324 26.9C727.988 26.524 727.536 26.328 726.968 26.312C726.408 26.328 725.944 26.532 725.576 26.924C725.216 27.316 725.024 27.788 725 28.34ZM733.195 32.18C732.547 32.172 732.039 32.008 731.671 31.688C731.303 31.376 731.115 30.94 731.107 30.38C731.099 29.844 731.271 29.42 731.623 29.108C731.975 28.796 732.547 28.548 733.339 28.364C733.939 28.22 734.363 28.068 734.611 27.908C734.851 27.74 734.967 27.532 734.959 27.284C734.951 26.988 734.831 26.752 734.599 26.576C734.367 26.4 734.051 26.312 733.651 26.312C733.227 26.312 732.879 26.432 732.607 26.672C732.327 26.912 732.143 27.248 732.055 27.68L731.107 27.5C731.227 26.868 731.511 26.372 731.959 26.012C732.415 25.652 732.979 25.468 733.651 25.46C734.371 25.468 734.931 25.652 735.331 26.012C735.731 26.38 735.935 26.884 735.943 27.524V32H735.067V31.328H735.043C734.859 31.592 734.607 31.8 734.287 31.952C733.967 32.104 733.603 32.18 733.195 32.18ZM733.267 31.304C733.787 31.296 734.203 31.16 734.515 30.896C734.835 30.624 734.999 30.276 735.007 29.852V28.424H734.983C734.919 28.576 734.779 28.712 734.563 28.832C734.339 28.952 734.015 29.064 733.591 29.168C733.039 29.304 732.643 29.464 732.403 29.648C732.155 29.824 732.035 30.048 732.043 30.32C732.043 30.64 732.147 30.884 732.355 31.052C732.563 31.22 732.867 31.304 733.267 31.304ZM740.568 26.48H739.008V30.548C739.008 30.748 739.06 30.896 739.164 30.992C739.268 31.08 739.448 31.124 739.704 31.124H740.232V32H739.632C739.064 32.008 738.66 31.9 738.42 31.676C738.18 31.452 738.064 31.072 738.072 30.536V26.48H737.112V25.64H738.072V24.2H739.008V25.64H740.568V26.48ZM744.619 32.18C743.723 32.164 743.011 31.856 742.483 31.256C741.963 30.648 741.695 29.836 741.679 28.82C741.695 27.804 741.967 26.992 742.495 26.384C743.023 25.784 743.731 25.476 744.619 25.46C745.491 25.476 746.179 25.768 746.683 26.336C747.195 26.904 747.455 27.664 747.463 28.616V29.096H742.627C742.643 29.72 742.827 30.244 743.179 30.668C743.531 31.092 744.003 31.312 744.595 31.328C745.035 31.336 745.403 31.24 745.699 31.04C745.995 30.848 746.275 30.52 746.539 30.056L747.319 30.524C747.039 31.068 746.675 31.48 746.227 31.76C745.771 32.04 745.235 32.18 744.619 32.18ZM742.651 28.34H746.515C746.491 27.756 746.311 27.276 745.975 26.9C745.639 26.524 745.187 26.328 744.619 26.312C744.059 26.328 743.595 26.532 743.227 26.924C742.867 27.316 742.675 27.788 742.651 28.34ZM748.998 32V25.64H749.886V26.168H749.91C750.03 25.968 750.202 25.812 750.426 25.7C750.658 25.588 750.926 25.532 751.23 25.532C751.342 25.532 751.45 25.54 751.554 25.556C751.658 25.572 751.762 25.596 751.866 25.628L751.662 26.6C751.55 26.56 751.446 26.532 751.35 26.516C751.246 26.5 751.142 26.492 751.038 26.492C750.67 26.484 750.394 26.616 750.21 26.888C750.026 27.16 749.934 27.592 749.934 28.184V32H748.998ZM755.56 32.18C754.736 32.172 754.08 31.968 753.592 31.568C753.104 31.16 752.82 30.58 752.74 29.828L753.652 29.66C753.74 30.236 753.936 30.656 754.24 30.92C754.544 31.184 754.984 31.312 755.56 31.304C756 31.304 756.344 31.22 756.592 31.052C756.832 30.892 756.956 30.672 756.964 30.392C756.972 30.104 756.848 29.864 756.592 29.672C756.336 29.488 755.876 29.3 755.212 29.108C754.412 28.884 753.848 28.632 753.52 28.352C753.192 28.072 753.032 27.716 753.04 27.284C753.048 26.74 753.256 26.304 753.664 25.976C754.072 25.64 754.604 25.468 755.26 25.46C755.908 25.468 756.448 25.64 756.88 25.976C757.312 26.304 757.592 26.764 757.72 27.356L756.808 27.56C756.696 27.16 756.512 26.856 756.256 26.648C755.992 26.44 755.66 26.336 755.26 26.336C754.868 26.336 754.56 26.42 754.336 26.588C754.104 26.748 753.984 26.968 753.976 27.248C753.968 27.464 754.076 27.648 754.3 27.8C754.532 27.952 754.94 28.112 755.524 28.28C756.396 28.528 757.016 28.812 757.384 29.132C757.744 29.444 757.92 29.852 757.912 30.356C757.904 30.916 757.688 31.356 757.264 31.676C756.848 32.004 756.28 32.172 755.56 32.18Z" fill="#262626"/>
<path d="M783.977 32V23.6H787.217C788.113 23.608 788.805 23.84 789.293 24.296C789.773 24.752 790.017 25.384 790.025 26.192C790.017 27 789.773 27.628 789.293 28.076C788.805 28.524 788.113 28.752 787.217 28.76H784.961V32H783.977ZM784.961 27.824H787.157C787.789 27.824 788.261 27.692 788.573 27.428C788.877 27.164 789.029 26.752 789.029 26.192C789.029 25.632 788.873 25.216 788.561 24.944C788.257 24.672 787.789 24.536 787.157 24.536H784.961V27.824ZM793.167 32.18C792.519 32.172 792.011 32.008 791.643 31.688C791.275 31.376 791.087 30.94 791.079 30.38C791.071 29.844 791.243 29.42 791.595 29.108C791.947 28.796 792.519 28.548 793.311 28.364C793.911 28.22 794.335 28.068 794.583 27.908C794.823 27.74 794.939 27.532 794.931 27.284C794.923 26.988 794.803 26.752 794.571 26.576C794.339 26.4 794.023 26.312 793.623 26.312C793.199 26.312 792.851 26.432 792.579 26.672C792.299 26.912 792.115 27.248 792.027 27.68L791.079 27.5C791.199 26.868 791.483 26.372 791.931 26.012C792.387 25.652 792.951 25.468 793.623 25.46C794.343 25.468 794.903 25.652 795.303 26.012C795.703 26.38 795.907 26.884 795.915 27.524V32H795.039V31.328H795.015C794.831 31.592 794.579 31.8 794.259 31.952C793.939 32.104 793.575 32.18 793.167 32.18ZM793.239 31.304C793.759 31.296 794.175 31.16 794.487 30.896C794.807 30.624 794.971 30.276 794.979 29.852V28.424H794.955C794.891 28.576 794.751 28.712 794.535 28.832C794.311 28.952 793.987 29.064 793.563 29.168C793.011 29.304 792.615 29.464 792.375 29.648C792.127 29.824 792.007 30.048 792.015 30.32C792.015 30.64 792.119 30.884 792.327 31.052C792.535 31.22 792.839 31.304 793.239 31.304ZM797.637 32V25.64H798.549V26.228H798.573C798.773 25.996 799.033 25.812 799.353 25.676C799.673 25.532 800.009 25.46 800.361 25.46C801.105 25.468 801.693 25.688 802.125 26.12C802.549 26.552 802.765 27.14 802.773 27.884V32H801.837V28.004C801.829 27.484 801.689 27.076 801.417 26.78C801.137 26.492 800.749 26.344 800.253 26.336C799.741 26.344 799.337 26.5 799.041 26.804C798.737 27.1 798.581 27.5 798.573 28.004V32H797.637ZM807.397 26.48H805.837V30.548C805.837 30.748 805.889 30.896 805.993 30.992C806.097 31.08 806.277 31.124 806.533 31.124H807.061V32H806.461C805.893 32.008 805.489 31.9 805.249 31.676C805.009 31.452 804.893 31.072 804.901 30.536V26.48H803.941V25.64H804.901V24.2H805.837V25.64H807.397V26.48ZM811.207 32.18C810.383 32.172 809.727 31.968 809.239 31.568C808.751 31.16 808.467 30.58 808.387 29.828L809.299 29.66C809.387 30.236 809.583 30.656 809.887 30.92C810.191 31.184 810.631 31.312 811.207 31.304C811.647 31.304 811.991 31.22 812.239 31.052C812.479 30.892 812.603 30.672 812.611 30.392C812.619 30.104 812.495 29.864 812.239 29.672C811.983 29.488 811.523 29.3 810.859 29.108C810.059 28.884 809.495 28.632 809.167 28.352C808.839 28.072 808.679 27.716 808.687 27.284C808.695 26.74 808.903 26.304 809.311 25.976C809.719 25.64 810.251 25.468 810.907 25.46C811.555 25.468 812.095 25.64 812.527 25.976C812.959 26.304 813.239 26.764 813.367 27.356L812.455 27.56C812.343 27.16 812.159 26.856 811.903 26.648C811.639 26.44 811.307 26.336 810.907 26.336C810.515 26.336 810.207 26.42 809.983 26.588C809.751 26.748 809.631 26.968 809.623 27.248C809.615 27.464 809.723 27.648 809.947 27.8C810.179 27.952 810.587 28.112 811.171 28.28C812.043 28.528 812.663 28.812 813.031 29.132C813.391 29.444 813.567 29.852 813.559 30.356C813.551 30.916 813.335 31.356 812.911 31.676C812.495 32.004 811.927 32.172 811.207 32.18ZM825.377 30.824L824.813 31.484L824.021 30.776C823.789 31.232 823.437 31.58 822.965 31.82C822.493 32.06 821.917 32.18 821.237 32.18C820.333 32.172 819.625 31.952 819.113 31.52C818.609 31.088 818.353 30.488 818.345 29.72C818.345 29.248 818.489 28.796 818.777 28.364C819.065 27.932 819.485 27.556 820.037 27.236C819.685 26.908 819.433 26.596 819.281 26.3C819.129 26.004 819.053 25.692 819.053 25.364C819.061 24.796 819.265 24.332 819.665 23.972C820.065 23.612 820.589 23.428 821.237 23.42C821.869 23.428 822.385 23.596 822.785 23.924C823.185 24.26 823.433 24.724 823.529 25.316L822.605 25.472C822.525 25.08 822.373 24.788 822.149 24.596C821.933 24.396 821.633 24.296 821.249 24.296C820.857 24.304 820.553 24.404 820.337 24.596C820.113 24.796 819.997 25.064 819.989 25.4C819.981 25.624 820.029 25.832 820.133 26.024C820.229 26.216 820.417 26.432 820.697 26.672L823.373 29.048V27.296H824.285V29.852L825.377 30.824ZM821.237 31.304C821.765 31.304 822.205 31.204 822.557 31.004C822.917 30.804 823.161 30.512 823.289 30.128L820.673 27.812C820.177 28.092 819.821 28.388 819.605 28.7C819.381 29.012 819.273 29.352 819.281 29.72C819.289 30.208 819.465 30.592 819.809 30.872C820.153 31.152 820.629 31.296 821.237 31.304ZM832.13 32.18C831.386 32.18 830.806 31.972 830.39 31.556C829.974 31.14 829.734 30.516 829.67 29.684L830.63 29.576C830.678 30.152 830.822 30.572 831.062 30.836C831.294 31.108 831.65 31.244 832.13 31.244C832.61 31.244 832.978 31.08 833.234 30.752C833.482 30.432 833.606 29.96 833.606 29.336V23.6H834.602V29.384C834.586 30.28 834.354 30.968 833.906 31.448C833.458 31.928 832.866 32.172 832.13 32.18ZM839.272 32.18C838.376 32.164 837.664 31.856 837.136 31.256C836.616 30.648 836.348 29.836 836.332 28.82C836.348 27.804 836.62 26.992 837.148 26.384C837.676 25.784 838.384 25.476 839.272 25.46C840.144 25.476 840.832 25.768 841.336 26.336C841.848 26.904 842.108 27.664 842.116 28.616V29.096H837.28C837.296 29.72 837.48 30.244 837.832 30.668C838.184 31.092 838.656 31.312 839.248 31.328C839.688 31.336 840.056 31.24 840.352 31.04C840.648 30.848 840.928 30.52 841.192 30.056L841.972 30.524C841.692 31.068 841.328 31.48 840.88 31.76C840.424 32.04 839.888 32.18 839.272 32.18ZM837.304 28.34H841.168C841.144 27.756 840.964 27.276 840.628 26.9C840.292 26.524 839.84 26.328 839.272 26.312C838.712 26.328 838.248 26.532 837.88 26.924C837.52 27.316 837.328 27.788 837.304 28.34ZM845.499 32.18C844.851 32.172 844.343 32.008 843.975 31.688C843.607 31.376 843.419 30.94 843.411 30.38C843.403 29.844 843.575 29.42 843.927 29.108C844.279 28.796 844.851 28.548 845.643 28.364C846.243 28.22 846.667 28.068 846.915 27.908C847.155 27.74 847.271 27.532 847.263 27.284C847.255 26.988 847.135 26.752 846.903 26.576C846.671 26.4 846.355 26.312 845.955 26.312C845.531 26.312 845.183 26.432 844.911 26.672C844.631 26.912 844.447 27.248 844.359 27.68L843.411 27.5C843.531 26.868 843.815 26.372 844.263 26.012C844.719 25.652 845.283 25.468 845.955 25.46C846.675 25.468 847.235 25.652 847.635 26.012C848.035 26.38 848.239 26.884 848.247 27.524V32H847.371V31.328H847.347C847.163 31.592 846.911 31.8 846.591 31.952C846.271 32.104 845.907 32.18 845.499 32.18ZM845.571 31.304C846.091 31.296 846.507 31.16 846.819 30.896C847.139 30.624 847.303 30.276 847.311 29.852V28.424H847.287C847.223 28.576 847.083 28.712 846.867 28.832C846.643 28.952 846.319 29.064 845.895 29.168C845.343 29.304 844.947 29.464 844.707 29.648C844.459 29.824 844.339 30.048 844.347 30.32C844.347 30.64 844.451 30.884 844.659 31.052C844.867 31.22 845.171 31.304 845.571 31.304ZM849.968 32V25.64H850.88V26.228H850.904C851.104 25.996 851.364 25.812 851.684 25.676C852.004 25.532 852.34 25.46 852.692 25.46C853.436 25.468 854.024 25.688 854.456 26.12C854.88 26.552 855.096 27.14 855.104 27.884V32H854.168V28.004C854.16 27.484 854.02 27.076 853.748 26.78C853.468 26.492 853.08 26.344 852.584 26.336C852.072 26.344 851.668 26.5 851.372 26.804C851.068 27.1 850.912 27.5 850.904 28.004V32H849.968ZM859.284 32.18C858.46 32.172 857.804 31.968 857.316 31.568C856.828 31.16 856.544 30.58 856.464 29.828L857.376 29.66C857.464 30.236 857.66 30.656 857.964 30.92C858.268 31.184 858.708 31.312 859.284 31.304C859.724 31.304 860.068 31.22 860.316 31.052C860.556 30.892 860.68 30.672 860.688 30.392C860.696 30.104 860.572 29.864 860.316 29.672C860.06 29.488 859.6 29.3 858.936 29.108C858.136 28.884 857.572 28.632 857.244 28.352C856.916 28.072 856.756 27.716 856.764 27.284C856.772 26.74 856.98 26.304 857.388 25.976C857.796 25.64 858.328 25.468 858.984 25.46C859.632 25.468 860.172 25.64 860.604 25.976C861.036 26.304 861.316 26.764 861.444 27.356L860.532 27.56C860.42 27.16 860.236 26.856 859.98 26.648C859.716 26.44 859.384 26.336 858.984 26.336C858.592 26.336 858.284 26.42 858.06 26.588C857.828 26.748 857.708 26.968 857.7 27.248C857.692 27.464 857.8 27.648 858.024 27.8C858.256 27.952 858.664 28.112 859.248 28.28C860.12 28.528 860.74 28.812 861.108 29.132C861.468 29.444 861.644 29.852 861.636 30.356C861.628 30.916 861.412 31.356 860.988 31.676C860.572 32.004 860.004 32.172 859.284 32.18Z" fill="#262626"/>
<path d="M891.048 32.18C889.968 32.164 889.112 31.764 888.48 30.98C887.848 30.196 887.524 29.136 887.508 27.8C887.524 26.464 887.848 25.404 888.48 24.62C889.112 23.836 889.968 23.436 891.048 23.42C892.128 23.436 892.984 23.836 893.616 24.62C894.248 25.404 894.572 26.464 894.588 27.8C894.572 29.136 894.248 30.196 893.616 30.98C892.984 31.764 892.128 32.164 891.048 32.18ZM891.048 31.244C891.84 31.236 892.46 30.928 892.908 30.32C893.356 29.712 893.584 28.872 893.592 27.8C893.584 26.728 893.356 25.888 892.908 25.28C892.46 24.672 891.84 24.364 891.048 24.356C890.256 24.364 889.636 24.672 889.188 25.28C888.74 25.888 888.512 26.728 888.504 27.8C888.512 28.872 888.74 29.712 889.188 30.32C889.636 30.928 890.256 31.236 891.048 31.244ZM898.24 32.18C897.528 32.172 896.976 31.96 896.584 31.544C896.2 31.136 896.004 30.544 895.996 29.768V25.64H896.932V29.636C896.932 30.196 897.06 30.616 897.316 30.896C897.58 31.168 897.98 31.304 898.516 31.304C899.004 31.296 899.392 31.144 899.68 30.848C899.96 30.544 900.104 30.14 900.112 29.636V25.64H901.048V32H900.136V31.412H900.112C899.912 31.652 899.648 31.84 899.32 31.976C898.992 32.112 898.632 32.18 898.24 32.18ZM905.735 26.48H904.175V30.548C904.175 30.748 904.227 30.896 904.331 30.992C904.435 31.08 904.615 31.124 904.871 31.124H905.399V32H904.799C904.231 32.008 903.827 31.9 903.587 31.676C903.347 31.452 903.231 31.072 903.239 30.536V26.48H902.279V25.64H903.239V24.2H904.175V25.64H905.735V26.48ZM909.786 32.18C908.89 32.164 908.178 31.856 907.65 31.256C907.13 30.648 906.862 29.836 906.846 28.82C906.862 27.804 907.134 26.992 907.662 26.384C908.19 25.784 908.898 25.476 909.786 25.46C910.658 25.476 911.346 25.768 911.85 26.336C912.362 26.904 912.622 27.664 912.63 28.616V29.096H907.794C907.81 29.72 907.994 30.244 908.346 30.668C908.698 31.092 909.17 31.312 909.762 31.328C910.202 31.336 910.57 31.24 910.866 31.04C911.162 30.848 911.442 30.52 911.706 30.056L912.486 30.524C912.206 31.068 911.842 31.48 911.394 31.76C910.938 32.04 910.402 32.18 909.786 32.18ZM907.818 28.34H911.682C911.658 27.756 911.478 27.276 911.142 26.9C910.806 26.524 910.354 26.328 909.786 26.312C909.226 26.328 908.762 26.532 908.394 26.924C908.034 27.316 907.842 27.788 907.818 28.34ZM914.165 32V25.64H915.053V26.168H915.077C915.197 25.968 915.369 25.812 915.593 25.7C915.825 25.588 916.093 25.532 916.397 25.532C916.509 25.532 916.617 25.54 916.721 25.556C916.825 25.572 916.929 25.596 917.033 25.628L916.829 26.6C916.717 26.56 916.613 26.532 916.517 26.516C916.413 26.5 916.309 26.492 916.205 26.492C915.837 26.484 915.561 26.616 915.377 26.888C915.193 27.16 915.101 27.592 915.101 28.184V32H914.165ZM919.299 32L917.775 25.64H918.699L919.851 30.584H919.875L921.579 25.64H922.431L924.135 30.584H924.159L925.311 25.64H926.235L924.711 32H923.823L922.023 26.804H921.999L920.187 32H919.299ZM930.226 32.18C929.33 32.164 928.618 31.856 928.09 31.256C927.57 30.648 927.302 29.836 927.286 28.82C927.302 27.804 927.574 26.992 928.102 26.384C928.63 25.784 929.338 25.476 930.226 25.46C931.098 25.476 931.786 25.768 932.29 26.336C932.802 26.904 933.062 27.664 933.07 28.616V29.096H928.234C928.25 29.72 928.434 30.244 928.786 30.668C929.138 31.092 929.61 31.312 930.202 31.328C930.642 31.336 931.01 31.24 931.306 31.04C931.602 30.848 931.882 30.52 932.146 30.056L932.926 30.524C932.646 31.068 932.282 31.48 931.834 31.76C931.378 32.04 930.842 32.18 930.226 32.18ZM928.258 28.34H932.122C932.098 27.756 931.918 27.276 931.582 26.9C931.246 26.524 930.794 26.328 930.226 26.312C929.666 26.328 929.202 26.532 928.834 26.924C928.474 27.316 928.282 27.788 928.258 28.34ZM936.453 32.18C935.805 32.172 935.297 32.008 934.929 31.688C934.561 31.376 934.373 30.94 934.365 30.38C934.357 29.844 934.529 29.42 934.881 29.108C935.233 28.796 935.805 28.548 936.597 28.364C937.197 28.22 937.621 28.068 937.869 27.908C938.109 27.74 938.225 27.532 938.217 27.284C938.209 26.988 938.089 26.752 937.857 26.576C937.625 26.4 937.309 26.312 936.909 26.312C936.485 26.312 936.137 26.432 935.865 26.672C935.585 26.912 935.401 27.248 935.313 27.68L934.365 27.5C934.485 26.868 934.769 26.372 935.217 26.012C935.673 25.652 936.237 25.468 936.909 25.46C937.629 25.468 938.189 25.652 938.589 26.012C938.989 26.38 939.193 26.884 939.201 27.524V32H938.325V31.328H938.301C938.117 31.592 937.865 31.8 937.545 31.952C937.225 32.104 936.861 32.18 936.453 32.18ZM936.525 31.304C937.045 31.296 937.461 31.16 937.773 30.896C938.093 30.624 938.257 30.276 938.265 29.852V28.424H938.241C938.177 28.576 938.037 28.712 937.821 28.832C937.597 28.952 937.273 29.064 936.849 29.168C936.297 29.304 935.901 29.464 935.661 29.648C935.413 29.824 935.293 30.048 935.301 30.32C935.301 30.64 935.405 30.884 935.613 31.052C935.821 31.22 936.125 31.304 936.525 31.304ZM940.922 32V25.64H941.81V26.168H941.834C941.954 25.968 942.126 25.812 942.35 25.7C942.582 25.588 942.85 25.532 943.154 25.532C943.266 25.532 943.374 25.54 943.478 25.556C943.582 25.572 943.686 25.596 943.79 25.628L943.586 26.6C943.474 26.56 943.37 26.532 943.274 26.516C943.17 26.5 943.066 26.492 942.962 26.492C942.594 26.484 942.318 26.616 942.134 26.888C941.95 27.16 941.858 27.592 941.858 28.184V32H940.922Z" fill="#262626"/>
<path d="M972.741 32.18C971.709 32.18 970.901 31.924 970.317 31.412C969.725 30.908 969.381 30.176 969.285 29.216L970.269 29.048C970.349 29.792 970.593 30.344 971.001 30.704C971.409 31.064 971.993 31.244 972.753 31.244C973.345 31.236 973.813 31.112 974.157 30.872C974.501 30.632 974.677 30.304 974.685 29.888C974.701 29.472 974.533 29.124 974.181 28.844C973.837 28.556 973.233 28.28 972.369 28.016C971.377 27.696 970.681 27.36 970.281 27.008C969.873 26.648 969.677 26.192 969.693 25.64C969.709 24.976 969.961 24.444 970.449 24.044C970.929 23.636 971.573 23.428 972.381 23.42C973.181 23.428 973.853 23.648 974.397 24.08C974.933 24.512 975.277 25.108 975.429 25.868L974.457 26.072C974.321 25.512 974.077 25.088 973.725 24.8C973.373 24.504 972.921 24.356 972.369 24.356C971.849 24.364 971.441 24.48 971.145 24.704C970.841 24.936 970.685 25.248 970.677 25.64C970.669 25.952 970.813 26.22 971.109 26.444C971.413 26.66 971.941 26.884 972.693 27.116C973.773 27.46 974.541 27.844 974.997 28.268C975.461 28.692 975.685 29.228 975.669 29.876C975.653 30.572 975.381 31.128 974.853 31.544C974.325 31.96 973.621 32.172 972.741 32.18ZM977.076 32V23.24H978.012V26.228H978.036C978.228 25.996 978.48 25.812 978.792 25.676C979.112 25.532 979.448 25.46 979.8 25.46C980.544 25.468 981.128 25.688 981.552 26.12C981.984 26.544 982.204 27.128 982.212 27.872V32H981.276V28.004C981.268 27.484 981.128 27.076 980.856 26.78C980.576 26.492 980.188 26.344 979.692 26.336C979.18 26.344 978.776 26.5 978.48 26.804C978.176 27.1 978.02 27.5 978.012 28.004V32H977.076ZM986.68 32.18C985.768 32.164 985.044 31.856 984.508 31.256C983.98 30.648 983.708 29.836 983.692 28.82C983.708 27.804 983.98 26.992 984.508 26.384C985.044 25.784 985.768 25.476 986.68 25.46C987.592 25.476 988.316 25.784 988.852 26.384C989.388 26.992 989.664 27.804 989.68 28.82C989.664 29.836 989.388 30.648 988.852 31.256C988.316 31.856 987.592 32.164 986.68 32.18ZM986.68 31.304C987.32 31.296 987.82 31.072 988.18 30.632C988.548 30.192 988.736 29.588 988.744 28.82C988.736 28.052 988.548 27.448 988.18 27.008C987.82 26.568 987.32 26.344 986.68 26.336C986.04 26.344 985.54 26.568 985.18 27.008C984.82 27.448 984.636 28.052 984.628 28.82C984.636 29.588 984.82 30.192 985.18 30.632C985.54 31.072 986.04 31.296 986.68 31.304ZM993.91 32.18C993.014 32.164 992.302 31.856 991.774 31.256C991.254 30.648 990.986 29.836 990.97 28.82C990.986 27.804 991.258 26.992 991.786 26.384C992.314 25.784 993.022 25.476 993.91 25.46C994.782 25.476 995.47 25.768 995.974 26.336C996.486 26.904 996.746 27.664 996.754 28.616V29.096H991.918C991.934 29.72 992.118 30.244 992.47 30.668C992.822 31.092 993.294 31.312 993.886 31.328C994.326 31.336 994.694 31.24 994.99 31.04C995.286 30.848 995.566 30.52 995.83 30.056L996.61 30.524C996.33 31.068 995.966 31.48 995.518 31.76C995.062 32.04 994.526 32.18 993.91 32.18ZM991.942 28.34H995.806C995.782 27.756 995.602 27.276 995.266 26.9C994.93 26.524 994.478 26.328 993.91 26.312C993.35 26.328 992.886 26.532 992.518 26.924C992.158 27.316 991.966 27.788 991.942 28.34ZM1000.75 32.18C999.925 32.172 999.269 31.968 998.781 31.568C998.293 31.16 998.009 30.58 997.929 29.828L998.841 29.66C998.929 30.236 999.125 30.656 999.429 30.92C999.733 31.184 1000.17 31.312 1000.75 31.304C1001.19 31.304 1001.53 31.22 1001.78 31.052C1002.02 30.892 1002.14 30.672 1002.15 30.392C1002.16 30.104 1002.04 29.864 1001.78 29.672C1001.52 29.488 1001.06 29.3 1000.4 29.108C999.601 28.884 999.037 28.632 998.709 28.352C998.381 28.072 998.221 27.716 998.229 27.284C998.237 26.74 998.445 26.304 998.853 25.976C999.261 25.64 999.793 25.468 1000.45 25.46C1001.1 25.468 1001.64 25.64 1002.07 25.976C1002.5 26.304 1002.78 26.764 1002.91 27.356L1002 27.56C1001.88 27.16 1001.7 26.856 1001.44 26.648C1001.18 26.44 1000.85 26.336 1000.45 26.336C1000.06 26.336 999.749 26.42 999.525 26.588C999.293 26.748 999.173 26.968 999.165 27.248C999.157 27.464 999.265 27.648 999.489 27.8C999.721 27.952 1000.13 28.112 1000.71 28.28C1001.58 28.528 1002.2 28.812 1002.57 29.132C1002.93 29.444 1003.11 29.852 1003.1 30.356C1003.09 30.916 1002.88 31.356 1002.45 31.676C1002.04 32.004 1001.47 32.172 1000.75 32.18ZM1014.92 30.824L1014.35 31.484L1013.56 30.776C1013.33 31.232 1012.98 31.58 1012.51 31.82C1012.03 32.06 1011.46 32.18 1010.78 32.18C1009.87 32.172 1009.17 31.952 1008.65 31.52C1008.15 31.088 1007.89 30.488 1007.89 29.72C1007.89 29.248 1008.03 28.796 1008.32 28.364C1008.61 27.932 1009.03 27.556 1009.58 27.236C1009.23 26.908 1008.97 26.596 1008.82 26.3C1008.67 26.004 1008.59 25.692 1008.59 25.364C1008.6 24.796 1008.81 24.332 1009.21 23.972C1009.61 23.612 1010.13 23.428 1010.78 23.42C1011.41 23.428 1011.93 23.596 1012.33 23.924C1012.73 24.26 1012.97 24.724 1013.07 25.316L1012.15 25.472C1012.07 25.08 1011.91 24.788 1011.69 24.596C1011.47 24.396 1011.17 24.296 1010.79 24.296C1010.4 24.304 1010.09 24.404 1009.88 24.596C1009.65 24.796 1009.54 25.064 1009.53 25.4C1009.52 25.624 1009.57 25.832 1009.67 26.024C1009.77 26.216 1009.96 26.432 1010.24 26.672L1012.91 29.048V27.296H1013.83V29.852L1014.92 30.824ZM1010.78 31.304C1011.31 31.304 1011.75 31.204 1012.1 31.004C1012.46 30.804 1012.7 30.512 1012.83 30.128L1010.21 27.812C1009.72 28.092 1009.36 28.388 1009.15 28.7C1008.92 29.012 1008.81 29.352 1008.82 29.72C1008.83 30.208 1009.01 30.592 1009.35 30.872C1009.69 31.152 1010.17 31.296 1010.78 31.304ZM1019.88 32V23.6H1023.11C1023.86 23.608 1024.45 23.808 1024.89 24.2C1025.33 24.584 1025.55 25.108 1025.56 25.772C1025.56 26.18 1025.47 26.536 1025.3 26.84C1025.13 27.136 1024.89 27.356 1024.58 27.5V27.524C1024.97 27.668 1025.28 27.912 1025.51 28.256C1025.74 28.608 1025.86 29.028 1025.87 29.516C1025.87 30.332 1025.62 30.948 1025.12 31.364C1024.62 31.788 1023.89 32 1022.92 32H1019.88ZM1020.87 27.164H1022.93C1024.02 27.164 1024.56 26.716 1024.56 25.82C1024.56 25.396 1024.43 25.076 1024.16 24.86C1023.88 24.644 1023.48 24.536 1022.93 24.536H1020.87V27.164ZM1020.87 31.064H1022.79C1023.52 31.064 1024.05 30.94 1024.38 30.692C1024.72 30.444 1024.88 30.052 1024.88 29.516C1024.88 28.996 1024.72 28.62 1024.4 28.388C1024.07 28.156 1023.54 28.04 1022.81 28.04H1020.87V31.064ZM1029.26 32.18C1028.61 32.172 1028.11 32.008 1027.74 31.688C1027.37 31.376 1027.18 30.94 1027.17 30.38C1027.17 29.844 1027.34 29.42 1027.69 29.108C1028.04 28.796 1028.61 28.548 1029.41 28.364C1030.01 28.22 1030.43 28.068 1030.68 27.908C1030.92 27.74 1031.03 27.532 1031.03 27.284C1031.02 26.988 1030.9 26.752 1030.67 26.576C1030.43 26.4 1030.12 26.312 1029.72 26.312C1029.29 26.312 1028.95 26.432 1028.67 26.672C1028.39 26.912 1028.21 27.248 1028.12 27.68L1027.17 27.5C1027.29 26.868 1027.58 26.372 1028.03 26.012C1028.48 25.652 1029.05 25.468 1029.72 25.46C1030.44 25.468 1031 25.652 1031.4 26.012C1031.8 26.38 1032 26.884 1032.01 27.524V32H1031.13V31.328H1031.11C1030.93 31.592 1030.67 31.8 1030.35 31.952C1030.03 32.104 1029.67 32.18 1029.26 32.18ZM1029.33 31.304C1029.85 31.296 1030.27 31.16 1030.58 30.896C1030.9 30.624 1031.07 30.276 1031.07 29.852V28.424H1031.05C1030.99 28.576 1030.85 28.712 1030.63 28.832C1030.41 28.952 1030.08 29.064 1029.66 29.168C1029.11 29.304 1028.71 29.464 1028.47 29.648C1028.22 29.824 1028.1 30.048 1028.11 30.32C1028.11 30.64 1028.21 30.884 1028.42 31.052C1028.63 31.22 1028.93 31.304 1029.33 31.304ZM1036.6 34.88C1035.98 34.872 1035.45 34.72 1035 34.424C1034.56 34.12 1034.23 33.692 1034.02 33.14L1034.87 32.756C1035.06 33.204 1035.28 33.528 1035.56 33.728C1035.83 33.92 1036.18 34.016 1036.6 34.016C1037.12 34.008 1037.52 33.84 1037.81 33.512C1038.1 33.176 1038.24 32.716 1038.24 32.132V31.328H1038.22C1038.03 31.608 1037.77 31.82 1037.45 31.964C1037.13 32.108 1036.76 32.18 1036.34 32.18C1035.48 32.164 1034.8 31.848 1034.28 31.232C1033.77 30.624 1033.51 29.82 1033.49 28.82C1033.51 27.812 1033.77 27.004 1034.28 26.396C1034.8 25.788 1035.49 25.476 1036.35 25.46C1036.72 25.46 1037.08 25.536 1037.4 25.688C1037.72 25.832 1038 26.04 1038.22 26.312H1038.24V25.64H1039.18V32.192C1039.17 33.008 1038.94 33.656 1038.47 34.136C1038.02 34.624 1037.39 34.872 1036.6 34.88ZM1036.41 31.304C1036.93 31.288 1037.36 31.104 1037.7 30.752C1038.05 30.4 1038.23 29.96 1038.24 29.432V28.196C1038.23 27.668 1038.04 27.228 1037.69 26.876C1037.34 26.532 1036.89 26.352 1036.35 26.336C1035.76 26.344 1035.3 26.572 1034.96 27.02C1034.61 27.468 1034.44 28.068 1034.43 28.82C1034.44 29.58 1034.62 30.18 1034.97 30.62C1035.32 31.068 1035.8 31.296 1036.41 31.304ZM1043.36 32.18C1042.54 32.172 1041.88 31.968 1041.4 31.568C1040.91 31.16 1040.62 30.58 1040.54 29.828L1041.46 29.66C1041.54 30.236 1041.74 30.656 1042.04 30.92C1042.35 31.184 1042.79 31.312 1043.36 31.304C1043.8 31.304 1044.15 31.22 1044.4 31.052C1044.64 30.892 1044.76 30.672 1044.77 30.392C1044.78 30.104 1044.65 29.864 1044.4 29.672C1044.14 29.488 1043.68 29.3 1043.02 29.108C1042.22 28.884 1041.65 28.632 1041.32 28.352C1041 28.072 1040.84 27.716 1040.84 27.284C1040.85 26.74 1041.06 26.304 1041.47 25.976C1041.88 25.64 1042.41 25.468 1043.06 25.46C1043.71 25.468 1044.25 25.64 1044.68 25.976C1045.12 26.304 1045.4 26.764 1045.52 27.356L1044.61 27.56C1044.5 27.16 1044.32 26.856 1044.06 26.648C1043.8 26.44 1043.46 26.336 1043.06 26.336C1042.67 26.336 1042.36 26.42 1042.14 26.588C1041.91 26.748 1041.79 26.968 1041.78 27.248C1041.77 27.464 1041.88 27.648 1042.1 27.8C1042.34 27.952 1042.74 28.112 1043.33 28.28C1044.2 28.528 1044.82 28.812 1045.19 29.132C1045.55 29.444 1045.72 29.852 1045.72 30.356C1045.71 30.916 1045.49 31.356 1045.07 31.676C1044.65 32.004 1044.08 32.172 1043.36 32.18Z" fill="#262626"/>
<path d="M1074.71 32.18C1073.68 32.18 1072.87 31.924 1072.29 31.412C1071.7 30.908 1071.35 30.176 1071.26 29.216L1072.24 29.048C1072.32 29.792 1072.57 30.344 1072.97 30.704C1073.38 31.064 1073.97 31.244 1074.73 31.244C1075.32 31.236 1075.79 31.112 1076.13 30.872C1076.47 30.632 1076.65 30.304 1076.66 29.888C1076.67 29.472 1076.51 29.124 1076.15 28.844C1075.81 28.556 1075.21 28.28 1074.34 28.016C1073.35 27.696 1072.65 27.36 1072.25 27.008C1071.85 26.648 1071.65 26.192 1071.67 25.64C1071.68 24.976 1071.93 24.444 1072.42 24.044C1072.9 23.636 1073.55 23.428 1074.35 23.42C1075.15 23.428 1075.83 23.648 1076.37 24.08C1076.91 24.512 1077.25 25.108 1077.4 25.868L1076.43 26.072C1076.29 25.512 1076.05 25.088 1075.7 24.8C1075.35 24.504 1074.89 24.356 1074.34 24.356C1073.82 24.364 1073.41 24.48 1073.12 24.704C1072.81 24.936 1072.66 25.248 1072.65 25.64C1072.64 25.952 1072.79 26.22 1073.08 26.444C1073.39 26.66 1073.91 26.884 1074.67 27.116C1075.75 27.46 1076.51 27.844 1076.97 28.268C1077.43 28.692 1077.66 29.228 1077.64 29.876C1077.63 30.572 1077.35 31.128 1076.83 31.544C1076.3 31.96 1075.59 32.172 1074.71 32.18ZM1080.9 32.18C1080.25 32.172 1079.74 32.008 1079.37 31.688C1079.01 31.376 1078.82 30.94 1078.81 30.38C1078.8 29.844 1078.97 29.42 1079.33 29.108C1079.68 28.796 1080.25 28.548 1081.04 28.364C1081.64 28.22 1082.07 28.068 1082.31 27.908C1082.55 27.74 1082.67 27.532 1082.66 27.284C1082.65 26.988 1082.53 26.752 1082.3 26.576C1082.07 26.4 1081.75 26.312 1081.35 26.312C1080.93 26.312 1080.58 26.432 1080.31 26.672C1080.03 26.912 1079.85 27.248 1079.76 27.68L1078.81 27.5C1078.93 26.868 1079.21 26.372 1079.66 26.012C1080.12 25.652 1080.68 25.468 1081.35 25.46C1082.07 25.468 1082.63 25.652 1083.03 26.012C1083.43 26.38 1083.64 26.884 1083.65 27.524V32H1082.77V31.328H1082.75C1082.56 31.592 1082.31 31.8 1081.99 31.952C1081.67 32.104 1081.31 32.18 1080.9 32.18ZM1080.97 31.304C1081.49 31.296 1081.91 31.16 1082.22 30.896C1082.54 30.624 1082.7 30.276 1082.71 29.852V28.424H1082.69C1082.62 28.576 1082.48 28.712 1082.27 28.832C1082.04 28.952 1081.72 29.064 1081.29 29.168C1080.74 29.304 1080.35 29.464 1080.11 29.648C1079.86 29.824 1079.74 30.048 1079.75 30.32C1079.75 30.64 1079.85 30.884 1080.06 31.052C1080.27 31.22 1080.57 31.304 1080.97 31.304ZM1085.37 32V23.24H1086.3V32H1085.37ZM1090.77 32.18C1089.88 32.164 1089.17 31.856 1088.64 31.256C1088.12 30.648 1087.85 29.836 1087.83 28.82C1087.85 27.804 1088.12 26.992 1088.65 26.384C1089.18 25.784 1089.89 25.476 1090.77 25.46C1091.65 25.476 1092.33 25.768 1092.84 26.336C1093.35 26.904 1093.61 27.664 1093.62 28.616V29.096H1088.78C1088.8 29.72 1088.98 30.244 1089.33 30.668C1089.69 31.092 1090.16 31.312 1090.75 31.328C1091.19 31.336 1091.56 31.24 1091.85 31.04C1092.15 30.848 1092.43 30.52 1092.69 30.056L1093.47 30.524C1093.19 31.068 1092.83 31.48 1092.38 31.76C1091.93 32.04 1091.39 32.18 1090.77 32.18ZM1088.81 28.34H1092.67C1092.65 27.756 1092.47 27.276 1092.13 26.9C1091.79 26.524 1091.34 26.328 1090.77 26.312C1090.21 26.328 1089.75 26.532 1089.38 26.924C1089.02 27.316 1088.83 27.788 1088.81 28.34Z" fill="#D0021B"/>
</svg>
